<svg width="201" height="125" viewBox="0 0 201 125" fill="none" xmlns="http://www.w3.org/2000/svg">
<g filter="url(#filter0_d)">
<rect x="7" y="6" width="181" height="105" rx="20" fill="#F09435"/>
</g>
<g filter="url(#filter1_d)">
<path d="M44.264 50.24C43.9093 50.544 43.352 50.81 42.592 51.038C41.8573 51.266 41.0467 51.38 40.16 51.38C39.096 51.38 38.184 51.228 37.424 50.924C36.664 50.5947 36.1447 50.1513 35.866 49.594C35.5873 49.0113 35.2453 48.264 34.84 47.352C34.4347 46.4147 34.004 45.376 33.548 44.236C33.1173 43.096 32.6613 41.8927 32.18 40.626C31.724 39.334 31.2807 38.0293 30.85 36.712C30.4193 35.3947 30.014 34.1027 29.634 32.836C29.254 31.5693 28.9247 30.3787 28.646 29.264C29.0007 28.9093 29.5073 28.5927 30.166 28.314C30.85 28.01 31.572 27.858 32.332 27.858C33.2693 27.858 34.0293 28.0607 34.612 28.466C35.22 28.846 35.6633 29.568 35.942 30.632C36.626 33.1147 37.31 35.496 37.994 37.776C38.7033 40.0307 39.438 42.3867 40.198 44.844H40.426C41.11 42.4627 41.8067 39.866 42.516 37.054C43.2507 34.242 43.9473 31.4427 44.606 28.656C45.062 28.428 45.5433 28.238 46.05 28.086C46.582 27.934 47.1773 27.858 47.836 27.858C48.7733 27.858 49.5713 28.0733 50.23 28.504C50.8887 28.9093 51.218 29.5933 51.218 30.556C51.218 31.1133 51.0787 31.924 50.8 32.988C50.5467 34.052 50.2047 35.2553 49.774 36.598C49.3687 37.9153 48.9 39.296 48.368 40.74C47.8613 42.184 47.342 43.552 46.81 44.844C46.3033 46.1107 45.822 47.238 45.366 48.226C44.91 49.1887 44.5427 49.86 44.264 50.24ZM58.3056 28.656C58.7363 28.4027 59.3823 28.162 60.2436 27.934C61.1303 27.706 62.0169 27.592 62.9036 27.592C64.1703 27.592 65.2849 27.782 66.2476 28.162C67.2356 28.5167 67.8689 29.0867 68.1476 29.872C68.6036 31.1893 69.0976 32.722 69.6296 34.47C70.1616 36.218 70.6936 38.0293 71.2256 39.904C71.7576 41.7533 72.2769 43.59 72.7836 45.414C73.2903 47.2127 73.7336 48.8087 74.1136 50.202C73.8096 50.5567 73.3536 50.8353 72.7456 51.038C72.1376 51.266 71.4156 51.38 70.5796 51.38C69.9716 51.38 69.4523 51.3293 69.0216 51.228C68.6163 51.1267 68.2743 50.9747 67.9956 50.772C67.7423 50.5693 67.5269 50.3033 67.3496 49.974C67.1976 49.6447 67.0583 49.2647 66.9316 48.834L66.2476 46.212H59.3696C59.1669 46.972 58.9643 47.7573 58.7616 48.568C58.5589 49.3787 58.3563 50.164 58.1536 50.924C57.7989 51.0507 57.4189 51.152 57.0136 51.228C56.6336 51.3293 56.1649 51.38 55.6076 51.38C54.3156 51.38 53.3529 51.1647 52.7196 50.734C52.1116 50.278 51.8076 49.6573 51.8076 48.872C51.8076 48.5173 51.8583 48.1627 51.9596 47.808C52.0609 47.4533 52.1749 47.0353 52.3016 46.554C52.4789 45.87 52.7196 45.0213 53.0236 44.008C53.3529 42.9947 53.7076 41.9053 54.0876 40.74C54.4676 39.5493 54.8729 38.3333 55.3036 37.092C55.7343 35.8507 56.1396 34.6853 56.5196 33.596C56.8996 32.4813 57.2416 31.4933 57.5456 30.632C57.8749 29.7707 58.1283 29.112 58.3056 28.656ZM62.8656 33.558C62.5109 34.622 62.1056 35.8127 61.6496 37.13C61.2189 38.422 60.8263 39.7393 60.4716 41.082H65.1836C64.8289 39.714 64.4616 38.384 64.0816 37.092C63.7269 35.7747 63.3976 34.5967 63.0936 33.558H62.8656ZM83.8778 50.848C83.5991 50.924 83.1558 51 82.5478 51.076C81.9651 51.152 81.3825 51.19 80.7998 51.19C80.2171 51.19 79.6978 51.1393 79.2418 51.038C78.8111 50.962 78.4438 50.81 78.1398 50.582C77.8358 50.354 77.6078 50.0373 77.4558 49.632C77.3038 49.2267 77.2278 48.6947 77.2278 48.036V27.972C77.5065 27.9213 77.9498 27.858 78.5578 27.782C79.1658 27.6807 79.7485 27.63 80.3058 27.63C80.8885 27.63 81.3951 27.6807 81.8258 27.782C82.2818 27.858 82.6618 28.01 82.9658 28.238C83.2698 28.466 83.4978 28.7827 83.6498 29.188C83.8018 29.5933 83.8778 30.1253 83.8778 30.784V50.848ZM101.315 28.656C101.746 28.4027 102.392 28.162 103.253 27.934C104.14 27.706 105.027 27.592 105.913 27.592C107.18 27.592 108.295 27.782 109.257 28.162C110.245 28.5167 110.879 29.0867 111.157 29.872C111.613 31.1893 112.107 32.722 112.639 34.47C113.171 36.218 113.703 38.0293 114.235 39.904C114.767 41.7533 115.287 43.59 115.793 45.414C116.3 47.2127 116.743 48.8087 117.123 50.202C116.819 50.5567 116.363 50.8353 115.755 51.038C115.147 51.266 114.425 51.38 113.589 51.38C112.981 51.38 112.462 51.3293 112.031 51.228C111.626 51.1267 111.284 50.9747 111.005 50.772C110.752 50.5693 110.537 50.3033 110.359 49.974C110.207 49.6447 110.068 49.2647 109.941 48.834L109.257 46.212H102.379C102.177 46.972 101.974 47.7573 101.771 48.568C101.569 49.3787 101.366 50.164 101.163 50.924C100.809 51.0507 100.429 51.152 100.023 51.228C99.6434 51.3293 99.1747 51.38 98.6174 51.38C97.3254 51.38 96.3627 51.1647 95.7294 50.734C95.1214 50.278 94.8174 49.6573 94.8174 48.872C94.8174 48.5173 94.868 48.1627 94.9694 47.808C95.0707 47.4533 95.1847 47.0353 95.3114 46.554C95.4887 45.87 95.7294 45.0213 96.0334 44.008C96.3627 42.9947 96.7174 41.9053 97.0974 40.74C97.4774 39.5493 97.8827 38.3333 98.3134 37.092C98.744 35.8507 99.1494 34.6853 99.5294 33.596C99.9094 32.4813 100.251 31.4933 100.555 30.632C100.885 29.7707 101.138 29.112 101.315 28.656ZM105.875 33.558C105.521 34.622 105.115 35.8127 104.659 37.13C104.229 38.422 103.836 39.7393 103.481 41.082H108.193C107.839 39.714 107.471 38.384 107.091 37.092C106.737 35.7747 106.407 34.5967 106.103 33.558H105.875ZM123.772 51.114C122.682 51.114 121.821 50.7973 121.188 50.164C120.554 49.5307 120.238 48.6693 120.238 47.58V27.934C120.516 27.8833 120.96 27.82 121.568 27.744C122.176 27.6427 122.758 27.592 123.316 27.592C123.898 27.592 124.405 27.6427 124.836 27.744C125.292 27.82 125.672 27.972 125.976 28.2C126.28 28.428 126.508 28.7447 126.66 29.15C126.812 29.5553 126.888 30.0873 126.888 30.746V45.756H135.59C135.767 46.0347 135.932 46.4147 136.084 46.896C136.236 47.352 136.312 47.8333 136.312 48.34C136.312 49.3533 136.096 50.0753 135.666 50.506C135.235 50.9113 134.665 51.114 133.956 51.114H123.772ZM146.37 50.848C146.091 50.924 145.648 51 145.04 51.076C144.457 51.152 143.875 51.19 143.292 51.19C142.709 51.19 142.19 51.1393 141.734 51.038C141.303 50.962 140.936 50.81 140.632 50.582C140.328 50.354 140.1 50.0373 139.948 49.632C139.796 49.2267 139.72 48.6947 139.72 48.036V27.972C139.999 27.9213 140.442 27.858 141.05 27.782C141.658 27.6807 142.241 27.63 142.798 27.63C143.381 27.63 143.887 27.6807 144.318 27.782C144.774 27.858 145.154 28.01 145.458 28.238C145.762 28.466 145.99 28.7827 146.142 29.188C146.294 29.5933 146.37 30.1253 146.37 30.784V50.848Z" fill="white"/>
</g>
<g filter="url(#filter2_d)">
<path d="M36.096 71.65C37.16 71.65 37.9707 71.4093 38.528 70.928C39.1107 70.4213 39.402 69.6613 39.402 68.648C39.402 67.6853 39.098 66.9507 38.49 66.444C37.9073 65.912 37.046 65.646 35.906 65.646C35.5007 65.646 35.1587 65.6587 34.88 65.684C34.6267 65.684 34.3607 65.7093 34.082 65.76V71.65H36.096ZM34.12 83.848C33.8413 83.924 33.398 84 32.79 84.076C32.2073 84.152 31.6247 84.19 31.042 84.19C30.4593 84.19 29.94 84.1393 29.484 84.038C29.0533 83.962 28.686 83.81 28.382 83.582C28.078 83.354 27.85 83.0373 27.698 82.632C27.546 82.2267 27.47 81.6947 27.47 81.036V63.138C27.47 62.606 27.6093 62.2007 27.888 61.922C28.192 61.618 28.5973 61.3773 29.104 61.2C29.9653 60.896 30.9407 60.6807 32.03 60.554C33.1447 60.402 34.2593 60.326 35.374 60.326C38.87 60.326 41.5427 61.0733 43.392 62.568C45.2413 64.0627 46.166 66.0893 46.166 68.648C46.166 69.8893 45.9633 71.0167 45.558 72.03C45.178 73.018 44.5953 73.8793 43.81 74.614C43.05 75.3233 42.0747 75.8807 40.884 76.286C39.7187 76.666 38.3633 76.856 36.818 76.856H34.12V83.848ZM56.1621 76.552V83.848C55.8834 83.924 55.4401 84 54.8321 84.076C54.2494 84.152 53.6667 84.19 53.0841 84.19C52.5014 84.19 51.9821 84.1393 51.5261 84.038C51.0954 83.962 50.7281 83.81 50.4241 83.582C50.1454 83.354 49.9301 83.0373 49.7781 82.632C49.6261 82.2267 49.5501 81.6947 49.5501 81.036V63.138C49.5501 62.606 49.6894 62.2007 49.9681 61.922C50.2721 61.618 50.6774 61.3773 51.1841 61.2C52.0454 60.896 53.0461 60.6807 54.1861 60.554C55.3261 60.402 56.5421 60.326 57.8341 60.326C61.3301 60.326 63.9647 61.0607 65.7381 62.53C67.5114 63.9993 68.3981 65.988 68.3981 68.496C68.3981 70.0667 67.9927 71.4093 67.1821 72.524C66.3714 73.6387 65.4087 74.5 64.2941 75.108C65.2061 76.3493 66.1054 77.5147 66.9921 78.604C67.8787 79.6933 68.5754 80.6813 69.0821 81.568C68.8287 82.4547 68.3601 83.1387 67.6761 83.62C67.0174 84.076 66.2701 84.304 65.4341 84.304C64.8767 84.304 64.3954 84.2407 63.9901 84.114C63.5847 83.9873 63.2301 83.81 62.9261 83.582C62.6221 83.354 62.3434 83.0753 62.0901 82.746C61.8367 82.4167 61.5961 82.062 61.3681 81.682L58.1761 76.552H56.1621ZM58.5561 71.498C59.5187 71.498 60.2787 71.2573 60.8361 70.776C61.3934 70.2693 61.6721 69.5347 61.6721 68.572C61.6721 67.6093 61.3554 66.8873 60.7221 66.406C60.1141 65.8993 59.1387 65.646 57.7961 65.646C57.4161 65.646 57.1121 65.6587 56.8841 65.684C56.6561 65.7093 56.4027 65.7473 56.1241 65.798V71.498H58.5561ZM77.9052 61.656C78.3359 61.4027 78.9819 61.162 79.8432 60.934C80.7299 60.706 81.6165 60.592 82.5032 60.592C83.7699 60.592 84.8845 60.782 85.8472 61.162C86.8352 61.5167 87.4685 62.0867 87.7472 62.872C88.2032 64.1893 88.6972 65.722 89.2292 67.47C89.7612 69.218 90.2932 71.0293 90.8252 72.904C91.3572 74.7533 91.8765 76.59 92.3832 78.414C92.8899 80.2127 93.3332 81.8087 93.7132 83.202C93.4092 83.5567 92.9532 83.8353 92.3452 84.038C91.7372 84.266 91.0152 84.38 90.1792 84.38C89.5712 84.38 89.0519 84.3293 88.6212 84.228C88.2159 84.1267 87.8739 83.9747 87.5952 83.772C87.3419 83.5693 87.1265 83.3033 86.9492 82.974C86.7972 82.6447 86.6579 82.2647 86.5312 81.834L85.8472 79.212H78.9692C78.7665 79.972 78.5639 80.7573 78.3612 81.568C78.1585 82.3787 77.9559 83.164 77.7532 83.924C77.3985 84.0507 77.0185 84.152 76.6132 84.228C76.2332 84.3293 75.7645 84.38 75.2072 84.38C73.9152 84.38 72.9525 84.1647 72.3192 83.734C71.7112 83.278 71.4072 82.6573 71.4072 81.872C71.4072 81.5173 71.4579 81.1627 71.5592 80.808C71.6605 80.4533 71.7745 80.0353 71.9012 79.554C72.0785 78.87 72.3192 78.0213 72.6232 77.008C72.9525 75.9947 73.3072 74.9053 73.6872 73.74C74.0672 72.5493 74.4725 71.3333 74.9032 70.092C75.3339 68.8507 75.7392 67.6853 76.1192 66.596C76.4992 65.4813 76.8412 64.4933 77.1452 63.632C77.4745 62.7707 77.7279 62.112 77.9052 61.656ZM82.4652 66.558C82.1105 67.622 81.7052 68.8127 81.2492 70.13C80.8185 71.422 80.4259 72.7393 80.0712 74.082H84.7832C84.4285 72.714 84.0612 71.384 83.6812 70.092C83.3265 68.7747 82.9972 67.5967 82.6932 66.558H82.4652ZM120.357 78.338C120.028 78.6167 119.597 78.8447 119.065 79.022C118.558 79.174 117.963 79.25 117.279 79.25C116.367 79.25 115.607 79.136 114.999 78.908C114.416 78.68 114.036 78.2873 113.859 77.73C113.15 75.5007 112.567 73.702 112.111 72.334C111.655 70.9407 111.3 69.7247 111.047 68.686H110.857C110.781 70.1807 110.718 71.5487 110.667 72.79C110.642 74.006 110.616 75.1967 110.591 76.362C110.591 77.5273 110.566 78.7053 110.515 79.896C110.49 81.0867 110.439 82.404 110.363 83.848C110.034 83.9747 109.603 84.076 109.071 84.152C108.539 84.2533 108.007 84.304 107.475 84.304C106.36 84.304 105.486 84.1267 104.853 83.772C104.245 83.4173 103.941 82.7713 103.941 81.834L105.043 62.454C105.246 62.1247 105.689 61.77 106.373 61.39C107.057 61.01 108.02 60.82 109.261 60.82C110.604 60.82 111.655 61.0353 112.415 61.466C113.175 61.8713 113.732 62.5427 114.087 63.48C114.315 64.088 114.556 64.7847 114.809 65.57C115.088 66.3553 115.354 67.166 115.607 68.002C115.886 68.838 116.152 69.674 116.405 70.51C116.658 71.3207 116.886 72.0553 117.089 72.714H117.279C117.887 70.586 118.495 68.534 119.103 66.558C119.711 64.5567 120.268 62.8847 120.775 61.542C121.155 61.3393 121.636 61.1747 122.219 61.048C122.827 60.896 123.498 60.82 124.233 60.82C125.474 60.82 126.488 61.01 127.273 61.39C128.058 61.7447 128.514 62.264 128.641 62.948C128.742 63.4547 128.844 64.24 128.945 65.304C129.072 66.3427 129.198 67.5207 129.325 68.838C129.452 70.1553 129.578 71.5487 129.705 73.018C129.832 74.4873 129.946 75.906 130.047 77.274C130.174 78.6167 130.275 79.858 130.351 80.998C130.427 82.1127 130.478 82.974 130.503 83.582C130.072 83.8353 129.616 84.0127 129.135 84.114C128.679 84.2407 128.084 84.304 127.349 84.304C126.386 84.304 125.576 84.1393 124.917 83.81C124.258 83.4807 123.904 82.8347 123.853 81.872C123.701 79.1107 123.6 76.628 123.549 74.424C123.524 72.22 123.473 70.3707 123.397 68.876H123.207C122.954 69.864 122.586 71.1053 122.105 72.6C121.624 74.0947 121.041 76.0073 120.357 78.338ZM141.366 83.848C141.087 83.924 140.644 84 140.036 84.076C139.453 84.152 138.871 84.19 138.288 84.19C137.705 84.19 137.186 84.1393 136.73 84.038C136.299 83.962 135.932 83.81 135.628 83.582C135.324 83.354 135.096 83.0373 134.944 82.632C134.792 82.2267 134.716 81.6947 134.716 81.036V60.972C134.995 60.9213 135.438 60.858 136.046 60.782C136.654 60.6807 137.237 60.63 137.794 60.63C138.377 60.63 138.883 60.6807 139.314 60.782C139.77 60.858 140.15 61.01 140.454 61.238C140.758 61.466 140.986 61.7827 141.138 62.188C141.29 62.5933 141.366 63.1253 141.366 63.784V83.848ZM162.216 78.338C161.887 78.6167 161.456 78.8447 160.924 79.022C160.418 79.174 159.822 79.25 159.138 79.25C158.226 79.25 157.466 79.136 156.858 78.908C156.276 78.68 155.896 78.2873 155.718 77.73C155.009 75.5007 154.426 73.702 153.97 72.334C153.514 70.9407 153.16 69.7247 152.906 68.686H152.716C152.64 70.1807 152.577 71.5487 152.526 72.79C152.501 74.006 152.476 75.1967 152.45 76.362C152.45 77.5273 152.425 78.7053 152.374 79.896C152.349 81.0867 152.298 82.404 152.222 83.848C151.893 83.9747 151.462 84.076 150.93 84.152C150.398 84.2533 149.866 84.304 149.334 84.304C148.22 84.304 147.346 84.1267 146.712 83.772C146.104 83.4173 145.8 82.7713 145.8 81.834L146.902 62.454C147.105 62.1247 147.548 61.77 148.232 61.39C148.916 61.01 149.879 60.82 151.12 60.82C152.463 60.82 153.514 61.0353 154.274 61.466C155.034 61.8713 155.592 62.5427 155.946 63.48C156.174 64.088 156.415 64.7847 156.668 65.57C156.947 66.3553 157.213 67.166 157.466 68.002C157.745 68.838 158.011 69.674 158.264 70.51C158.518 71.3207 158.746 72.0553 158.948 72.714H159.138C159.746 70.586 160.354 68.534 160.962 66.558C161.57 64.5567 162.128 62.8847 162.634 61.542C163.014 61.3393 163.496 61.1747 164.078 61.048C164.686 60.896 165.358 60.82 166.092 60.82C167.334 60.82 168.347 61.01 169.132 61.39C169.918 61.7447 170.374 62.264 170.5 62.948C170.602 63.4547 170.703 64.24 170.804 65.304C170.931 66.3427 171.058 67.5207 171.184 68.838C171.311 70.1553 171.438 71.5487 171.564 73.018C171.691 74.4873 171.805 75.906 171.906 77.274C172.033 78.6167 172.134 79.858 172.21 80.998C172.286 82.1127 172.337 82.974 172.362 83.582C171.932 83.8353 171.476 84.0127 170.994 84.114C170.538 84.2407 169.943 84.304 169.208 84.304C168.246 84.304 167.435 84.1393 166.776 83.81C166.118 83.4807 165.763 82.8347 165.712 81.872C165.56 79.1107 165.459 76.628 165.408 74.424C165.383 72.22 165.332 70.3707 165.256 68.876H165.066C164.813 69.864 164.446 71.1053 163.964 72.6C163.483 74.0947 162.9 76.0073 162.216 78.338Z" fill="white"/>
</g>
<path d="M164.807 56.4922L160.51 47.5859L157.111 43.1328C156.608 42.2597 156.343 41.264 156.345 40.25V30.2219H157.529C158.337 30.2219 159.112 30.5511 159.684 31.1372C160.255 31.7232 160.576 32.5181 160.576 33.3469V47.582" fill="white"/>
<path d="M164.807 56.4922L160.51 47.5859L157.111 43.1328C156.608 42.2597 156.343 41.264 156.345 40.25V30.2219H157.529C158.337 30.2219 159.112 30.5511 159.684 31.1372C160.255 31.7232 160.576 32.5181 160.576 33.3469V47.582" stroke="white" stroke-width="2.5" stroke-linecap="round" stroke-linejoin="round"/>
<path d="M150.703 41.7953V36.0086C150.703 36.0086 153.521 30.2219 156.345 30.2219" stroke="white" stroke-width="2.5" stroke-linecap="round" stroke-linejoin="round"/>
<path d="M169.038 41.7953C168.76 41.7953 168.488 41.7107 168.257 41.5523L163.676 38.5312C163.45 38.3814 163.263 38.1756 163.134 37.9328C163.005 37.69 162.938 37.4179 162.938 37.1414V35.2898C162.937 35.2106 162.958 35.1329 162.997 35.0647C163.037 34.9965 163.093 34.9404 163.161 34.9023C163.228 34.8642 163.305 34.8455 163.382 34.8481C163.459 34.8507 163.534 34.8746 163.599 34.9172L169.819 39.1445C170.071 39.3168 170.262 39.5678 170.364 39.8602C170.467 40.1526 170.474 40.4711 170.386 40.7683C170.298 41.0656 170.12 41.326 169.876 41.511C169.633 41.6959 169.338 41.7956 169.035 41.7953H169.038Z" fill="white"/>
<path d="M154.095 57.5523C153.876 57.5526 153.659 57.5004 153.463 57.3999C153.267 57.2994 153.097 57.1534 152.965 56.9734C152.497 56.3344 152.66 55.6312 153.247 54.9484L157.813 49.1156C157.876 49.0673 157.948 49.033 158.025 49.0149C158.101 48.9968 158.181 48.9953 158.258 49.0104C158.335 49.0256 158.408 49.0571 158.473 49.1029C158.537 49.1487 158.592 49.2079 158.633 49.2766C158.752 49.475 158.891 49.718 159.028 49.9867C159.428 50.7641 159.485 51.2453 158.9 51.9945C158.291 52.7758 154.94 57.2633 154.94 57.2633C154.74 57.4961 154.389 57.5523 154.095 57.5523Z" fill="white"/>
<path d="M160.576 27.3281C162.135 27.3281 163.398 26.0325 163.398 24.4344C163.398 22.8362 162.135 21.5406 160.576 21.5406C159.018 21.5406 157.755 22.8362 157.755 24.4344C157.755 26.0325 159.018 27.3281 160.576 27.3281Z" fill="white" stroke="white" stroke-width="1.25" stroke-linecap="round" stroke-linejoin="round"/>
<path d="M169.763 40C168.432 40 167.339 41.2137 167.339 42.6923V43.2308H164.946L164.916 43.7358L164.431 53.4282L164.4 54H175.125L175.095 53.4276L174.611 43.7353L174.58 43.2308H172.187V42.6923C172.187 41.2137 171.094 40 169.763 40ZM169.763 41.0769C170.149 41.0769 170.519 41.2471 170.791 41.5501C171.064 41.853 171.217 42.2639 171.217 42.6923V43.2308H168.309V42.6923C168.309 42.2639 168.462 41.853 168.735 41.5501C169.008 41.2471 169.377 41.0769 169.763 41.0769ZM165.855 44.3077H167.339V45.9231H168.309V44.3077H171.217V45.9231H172.187V44.3077H173.672L174.096 52.9231H165.431L165.855 44.3077Z" fill="white"/>
<defs>
<filter id="filter0_d" x="0" y="0" width="201" height="125" filterUnits="userSpaceOnUse" color-interpolation-filters="sRGB">
<feFlood flood-opacity="0" result="BackgroundImageFix"/>
<feColorMatrix in="SourceAlpha" type="matrix" values="0 0 0 0 0 0 0 0 0 0 0 0 0 0 0 0 0 0 127 0"/>
<feOffset dx="3" dy="4"/>
<feGaussianBlur stdDeviation="5"/>
<feColorMatrix type="matrix" values="0 0 0 0 0 0 0 0 0 0 0 0 0 0 0 0 0 0 0.25 0"/>
<feBlend mode="normal" in2="BackgroundImageFix" result="effect1_dropShadow"/>
<feBlend mode="normal" in="SourceGraphic" in2="effect1_dropShadow" result="shape"/>
</filter>
<filter id="filter1_d" x="24.646" y="27.592" width="125.724" height="31.788" filterUnits="userSpaceOnUse" color-interpolation-filters="sRGB">
<feFlood flood-opacity="0" result="BackgroundImageFix"/>
<feColorMatrix in="SourceAlpha" type="matrix" values="0 0 0 0 0 0 0 0 0 0 0 0 0 0 0 0 0 0 127 0"/>
<feOffset dy="4"/>
<feGaussianBlur stdDeviation="2"/>
<feColorMatrix type="matrix" values="0 0 0 0 0 0 0 0 0 0 0 0 0 0 0 0 0 0 0.25 0"/>
<feBlend mode="normal" in2="BackgroundImageFix" result="effect1_dropShadow"/>
<feBlend mode="normal" in="SourceGraphic" in2="effect1_dropShadow" result="shape"/>
</filter>
<filter id="filter2_d" x="23.4702" y="60.326" width="152.892" height="32.054" filterUnits="userSpaceOnUse" color-interpolation-filters="sRGB">
<feFlood flood-opacity="0" result="BackgroundImageFix"/>
<feColorMatrix in="SourceAlpha" type="matrix" values="0 0 0 0 0 0 0 0 0 0 0 0 0 0 0 0 0 0 127 0"/>
<feOffset dy="4"/>
<feGaussianBlur stdDeviation="2"/>
<feColorMatrix type="matrix" values="0 0 0 0 0 0 0 0 0 0 0 0 0 0 0 0 0 0 0.25 0"/>
<feBlend mode="normal" in2="BackgroundImageFix" result="effect1_dropShadow"/>
<feBlend mode="normal" in="SourceGraphic" in2="effect1_dropShadow" result="shape"/>
</filter>
</defs>
</svg>
